<svg xmlns="http://www.w3.org/2000/svg" version="1.1" xmlns:xlink="http://www.w3.org/1999/xlink" xmlns:svgjs="http://svgjs.com/svgjs" width="1115" height="650" preserveAspectRatio="none" viewBox="0 0 1115 650"><g mask="url(&quot;#SvgjsMask1851&quot;)" fill="none"><rect width="1115" height="650" x="0" y="0" fill="url(#SvgjsLinearGradient1852)"></rect><path d="M1058.3 341.85a21.76 21.76 0 1 0-40.84-15.04z" stroke="rgba(83, 66, 90, 1)"></path><path d="M66.72 12.39L131.3 12.39L131.3 36.35L66.72 36.35z" fill="rgba(83, 66, 90, 1)"></path><path d="M504.73 407.21L513.79 407.21L513.79 433.52L504.73 433.52z" stroke="rgba(197, 61, 252, 1)"></path><path d="M249.24 424.98L300.69 424.98L300.69 464.71L249.24 464.71z" stroke="rgba(197, 61, 252, 1)"></path><path d="M988.02 275.59L1045.13 275.59L1045.13 283.58L988.02 283.58z" fill="rgba(197, 61, 252, 1)"></path><path d="M672.9 254.14L701.11 254.14L701.11 281.48L672.9 281.48z" stroke="rgba(83, 66, 90, 1)"></path><path d="M304.55 56.2 a63.08 63.08 0 1 0 126.16 0 a63.08 63.08 0 1 0 -126.16 0z" stroke="rgba(197, 61, 252, 1)"></path><path d="M379.92 261.31L421.75 261.31L421.75 263.64L379.92 263.64z" stroke="rgba(230, 167, 255, 1)"></path><path d="M607.1 107.36L633.92 107.36L633.92 145.5L607.1 145.5z" stroke="rgba(197, 61, 252, 1)"></path><path d="M864.62 618.77 a63.51 63.51 0 1 0 127.02 0 a63.51 63.51 0 1 0 -127.02 0z" stroke="rgba(83, 66, 90, 1)"></path><path d="M767.63 436.12L780.52 436.12L780.52 449.01L767.63 449.01z" stroke="rgba(197, 61, 252, 1)"></path><path d="M162.99 248.12L192.88 248.12L192.88 283.1L162.99 283.1z" stroke="rgba(197, 61, 252, 1)"></path><path d="M1024.2 522.73 a57.42 57.42 0 1 0 114.84 0 a57.42 57.42 0 1 0 -114.84 0z" fill="rgba(197, 61, 252, 1)"></path><path d="M844.12 280.74 a59.08 59.08 0 1 0 118.16 0 a59.08 59.08 0 1 0 -118.16 0z" fill="rgba(230, 167, 255, 1)"></path><path d="M781 393.91a57.72 57.72 0 1 0 114.96 10.54z" fill="rgba(197, 61, 252, 1)"></path><path d="M938.75 549.68L943.53 549.68L943.53 554.46L938.75 554.46z" stroke="rgba(197, 61, 252, 1)"></path><path d="M779.98 515 a16.12 16.12 0 1 0 32.24 0 a16.12 16.12 0 1 0 -32.24 0z" stroke="rgba(230, 167, 255, 1)"></path><path d="M809.87 591.43L816.78 591.43L816.78 598.34L809.87 598.34z" stroke="rgba(83, 66, 90, 1)"></path><path d="M548.01 427.12 a4.08 4.08 0 1 0 8.16 0 a4.08 4.08 0 1 0 -8.16 0z" fill="rgba(83, 66, 90, 1)"></path><path d="M277.49 344.98L306.06 344.98L306.06 373.55L277.49 373.55z" fill="rgba(197, 61, 252, 1)"></path><path d="M158.75 552.82 a60.91 60.91 0 1 0 121.82 0 a60.91 60.91 0 1 0 -121.82 0z" stroke="rgba(197, 61, 252, 1)"></path><path d="M80.1 298.09L89.37 298.09L89.37 339.71L80.1 339.71z" stroke="rgba(230, 167, 255, 1)"></path></g><defs><mask id="SvgjsMask1851"><rect width="1115" height="650" fill="#ffffff"></rect></mask><linearGradient x1="10.43%" y1="-17.88%" x2="89.57%" y2="117.88%" gradientUnits="userSpaceOnUse" id="SvgjsLinearGradient1852"><stop stop-color="rgba(43, 0, 66, 1)" offset="0"></stop><stop stop-color="rgba(117, 26, 151, 1)" offset="1"></stop></linearGradient></defs></svg>